<svg width="16" height="16" viewBox="0 0 16 16" fill="none" xmlns="http://www.w3.org/2000/svg">
<path d="M5.33346 15.9994C6.80547 15.9994 8.00016 14.8047 8.00016 13.3327V10.666H5.33346C3.86145 10.666 2.66675 11.8607 2.66675 13.3327C2.66675 14.8047 3.86145 15.9994 5.33346 15.9994Z" fill="#0ACF83"/>
<path d="M2.66675 8.00067C2.66675 6.52867 3.86145 5.33398 5.33346 5.33398H8.00016V10.6673H5.33346C3.86145 10.6674 2.66675 9.47267 2.66675 8.00067Z" fill="#A259FF"/>
<path d="M2.66675 2.66669C2.66675 1.19469 3.86145 0 5.33346 0H8.00016V5.33331H5.33346C3.86145 5.33331 2.66675 4.13869 2.66675 2.66669Z" fill="#F24E1E"/>
<path d="M8 0H10.6667C12.1387 0 13.3334 1.19469 13.3334 2.66669C13.3334 4.13869 12.1387 5.33331 10.6667 5.33331H8V0Z" fill="#FF7262"/>
<path d="M13.3334 8.00067C13.3334 9.47267 12.1387 10.6674 10.6667 10.6674C9.1947 10.6674 8 9.47267 8 8.00067C8 6.52867 9.1947 5.33398 10.6667 5.33398C12.1387 5.33398 13.3334 6.52867 13.3334 8.00067Z" fill="#1ABCFE"/>
</svg>
