<svg width="17" height="16" viewBox="0 0 17 16" fill="none" xmlns="http://www.w3.org/2000/svg">
<path fill-rule="evenodd" clip-rule="evenodd" d="M8.5 0C4.0816 0 0.5 3.67194 0.5 8.20291C0.5 11.8265 2.792 14.9015 5.9712 15.9857C6.3712 16.0611 6.5168 15.808 6.5168 15.5902C6.5168 15.3961 6.5104 14.8794 6.5064 14.1956C4.2808 14.691 3.8112 13.0958 3.8112 13.0958C3.448 12.1475 2.9232 11.8953 2.9232 11.8953C2.1968 11.3876 2.9784 11.3974 2.9784 11.3974C3.7808 11.4548 4.2032 12.2425 4.2032 12.2425C4.9168 13.4955 6.076 13.1335 6.5312 12.9239C6.6048 12.394 6.8112 12.0329 7.04 11.8282C5.264 11.621 3.396 10.9167 3.396 7.77381C3.396 6.87875 3.708 6.14584 4.2192 5.57261C4.1368 5.36543 3.8624 4.53097 4.2976 3.40252C4.2976 3.40252 4.9696 3.18142 6.4976 4.24272C7.15021 4.06052 7.82355 3.96772 8.5 3.96675C9.18 3.97002 9.864 4.06092 10.5032 4.24272C12.0304 3.18142 12.7008 3.40171 12.7008 3.40171C13.1376 4.53097 12.8624 5.36543 12.7808 5.57261C13.2928 6.14584 13.6032 6.87875 13.6032 7.77381C13.6032 10.9249 11.732 11.6185 9.9504 11.8216C10.2376 12.0747 10.4928 12.575 10.4928 13.3407C10.4928 14.4364 10.4832 15.3216 10.4832 15.5902C10.4832 15.8097 10.6272 16.0652 11.0336 15.9849C12.6266 15.438 14.0115 14.3924 14.9924 12.996C15.9733 11.5995 16.5007 9.92286 16.5 8.20291C16.5 3.67194 12.9176 0 8.5 0Z" fill="black"/>
</svg>
