<svg width="17" height="16" viewBox="0 0 17 16" fill="none" xmlns="http://www.w3.org/2000/svg">
<g clip-path="url(#clip0_4004_4473)">
<path d="M16.4997 8.18415C16.4997 7.64035 16.4547 7.09359 16.3587 6.55859H8.66016V9.63927H13.0688C12.8858 10.6328 12.298 11.5118 11.4373 12.0702V14.0692H14.0674C15.612 12.6758 16.4997 10.6182 16.4997 8.18415Z" fill="#4285F4"/>
<path d="M8.66021 16.0002C10.8615 16.0002 12.7179 15.2918 14.0704 14.069L11.4403 12.07C10.7085 12.558 9.76381 12.8343 8.66317 12.8343C6.53384 12.8343 4.7284 11.4262 4.08061 9.5332H1.36646V11.5938C2.75202 14.2953 5.57414 16.0002 8.66021 16.0002Z" fill="#34A853"/>
<path d="M4.07791 9.53382C3.73603 8.54022 3.73603 7.46436 4.07791 6.47078V4.41016H1.36676C0.209126 6.67068 0.209126 9.3339 1.36676 11.5945L4.07791 9.53382Z" fill="#FBBC04"/>
<path d="M8.66021 3.16644C9.82381 3.14881 10.9484 3.57797 11.7912 4.36578L14.1215 2.08174C12.646 0.72367 10.6876 -0.0229773 8.66021 0.000539109C5.57414 0.000539109 2.75202 1.70548 1.36646 4.40987L4.07761 6.4705C4.72241 4.57449 6.53084 3.16644 8.66021 3.16644Z" fill="#EA4335"/>
</g>
<defs>
<clipPath id="clip0_4004_4473">
<rect width="16" height="16" fill="white" transform="translate(0.5)"/>
</clipPath>
</defs>
</svg>
